<?xml version="1.0" encoding="UTF-8"?>
<svg id="a" xmlns="http://www.w3.org/2000/svg" xmlns:xlink="http://www.w3.org/1999/xlink" version="1.1" viewBox="0 0 696 438.93">
  <!-- Generator: Adobe Illustrator 30.2.1, SVG Export Plug-In . SVG Version: 2.1.1 Build 1)  -->
  <defs>
    <style>
      .st0 {
        fill: url(#radial-gradient);
      }

      .st1 {
        fill: #edbdd8;
      }

      .st2 {
        fill: #fff;
      }

      .st3 {
        fill: none;
        stroke: #edbdd8;
        stroke-miterlimit: 10;
        stroke-width: 17px;
      }
    </style>
    <radialGradient id="radial-gradient" cx="300.19" cy="223.36" fx="300.19" fy="223.36" r="248.03" gradientUnits="userSpaceOnUse">
      <stop offset=".55" stop-color="#ec328c"/>
      <stop offset=".96" stop-color="#c72877"/>
    </radialGradient>
  </defs>
  <path class="st1" d="M208.37,257.68s-16.97-26.79-36.62-42.87c-19.65-16.08-52.38-23.22-81.12-41.98S19.92,124.6,12.77,108.52c0,.89-9.82,8.93-12.5,29.47s13.71,75.02,90.37,111.64c-.16.89-49.28-5.36-77.86-23.22,0,.89-6.25,82.17,101.82,81.28-.89-.89-16.97,21.44-58.05,9.82,0,0,12.23,39.3,47.65,43.76,35.41,4.47,97.93-35.23,97.93-35.23l6.25-68.38v.02h-.01Z"/>
  <path class="st1" d="M487.63,257.68s16.97-26.79,36.62-42.87c19.65-16.08,52.38-23.22,81.12-41.98s70.72-48.23,77.86-64.31c0,.89,9.82,8.93,12.5,29.47,2.68,20.54-13.71,75.02-90.37,111.64.16.89,49.28-5.36,77.86-23.22,0,.89,6.25,82.17-101.82,81.28.89-.89,16.97,21.44,58.05,9.82,0,0-12.23,39.3-47.65,43.76-35.41,4.47-97.93-35.23-97.93-35.23l-6.25-68.38v.02h.01Z"/>
  <ellipse class="st3" cx="348" cy="41.57" rx="129.36" ry="33.07"/>
  <g>
    <path class="st0" d="M346.05,58.7c-104.63,0-189.46,84.82-189.46,189.46s84.82,189.46,189.46,189.46,189.46-84.82,189.46-189.46S450.69,58.7,346.05,58.7Z"/>
    <path class="st2" d="M413.17,162.68c22.23,0,40.26,18.02,40.26,40.26,0,15.04-8.25,28.14-20.46,35.05,1.79-3.24,2.82-6.96,2.82-10.93,0-12.49-10.12-22.61-22.61-22.61s-22.61,10.12-22.61,22.61c0,3.97,1.03,7.69,2.82,10.93-12.21-6.91-20.46-20.01-20.46-35.05,0-22.23,18.02-40.26,40.26-40.26Z"/>
    <path class="st2" d="M456.76,303.75c-20.37,40.49-62.28,68.28-110.7,68.28s-90.33-27.79-110.7-68.28c-4.03-11.05,1.31-19.09,11.81-19.09h28.32l21.07,40.82,21.07-40.82h56.7l21.07,40.82,21.07-40.82h28.48c10.5,0,15.84,8.04,11.81,19.09Z"/>
    <path class="st2" d="M227.98,212.64s18.57-29.67,55.41-29.67,47.51,29.67,47.51,29.67c0,0-21.88-14.83-47.51-14.83s-55.41,14.83-55.41,14.83Z"/>
  </g>
</svg>